ply
format ascii 1.0
comment VCGLIB generated
comment TextureFile 22_tex.png
element vertex 323
property float x
property float y
property float z
property float nx
property float ny
property float nz
property uchar red
property uchar green
property uchar blue
property uchar alpha
property float texture_u
property float texture_v
element face 360
property list uchar int vertex_indices
end_header
0.639422 -2.281115 -0.210902 0.1362889 -0.9896852 -0.04414276 255 0 0 255 0.639422 -2.281115
-0.007235 -2.379538 -0.000775 3.324527e-05 -1 0.0001357037 255 0 0 255 -0.007235 -2.379538
-0.007238 -2.281197 -0.680752 3.216678e-05 -0.9897032 -0.1431348 255 0 0 255 -0.007238 -2.281197
0.476615 -2.233876 -0.666765 0.1025009 -0.9847032 -0.1409013 255 0 0 255 0.476615 -2.233876
0.392404 -2.281023 0.549271 0.08424637 -0.989665 0.1160426 255 0 0 255 0.392404 -2.281023
0.775611 -2.233751 0.253568 0.1658271 -0.984675 0.05400467 255 0 0 255 0.775611 -2.233751
-0.406885 -2.281049 0.549277 -0.08418182 -0.9896706 0.1160407 255 0 0 255 -0.406885 -2.281049
-0.00724 -2.233703 0.822325 3.332403e-05 -0.9846641 0.1744608 255 0 0 255 -0.007240 -2.233703
-0.65391 -2.281157 -0.210905 -0.1362227 -0.9896944 -0.04414104 255 0 0 255 -0.653910 -2.281157
-0.790107 -2.233799 0.253573 -0.1657628 -0.9846858 0.05400532 255 0 0 255 -0.790107 -2.233799
-0.491101 -2.233906 -0.666774 -0.208796 -0.9348078 -0.2872956 255 0 0 255 -0.491101 -2.233906
-0.748252 -1.502321 -1.700542 -0.1571238 -0.7264847 -0.6689785 255 0 0 255 -0.748252 -1.502321
-0.007367 -1.887385 -1.45639 -1.894494e-05 -0.7947305 -0.6069626 255 0 0 255 -0.007367 -1.887385
-0.748221 -2.021574 -1.020665 -0.3090127 -0.8507006 -0.4252291 255 0 0 255 -0.748221 -2.021574
-0.974878 -1.725342 -1.332634 -0.3980596 -0.7358463 -0.5477944 255 0 0 255 -0.974878 -1.725342
-0.007364 -1.242687 -2.040514 -1.806455e-05 -0.5258505 -0.8505771 255 0 0 255 -0.007364 -1.242687
-0.491141 -1.21675 -1.998562 -0.1048785 -0.5229452 -0.8458894 255 0 0 255 -0.491141 -1.216750
0.733533 -1.50234 -1.700562 0.1570861 -0.7264904 -0.6689811 255 0 0 255 0.733533 -1.502340
0.476419 -1.216759 -1.998577 0.1048406 -0.522947 -0.845893 255 0 0 255 0.476419 -1.216759
0.733502 -2.021598 -1.020677 0.3089793 -0.8507099 -0.4252347 255 0 0 255 0.733502 -2.021598
0.960166 -1.725368 -1.332654 0.3980294 -0.7358571 -0.5478019 255 0 0 255 0.960166 -1.725368
-0.007364 -2.281198 -0.680753 -1.793355e-05 -0.8916538 -0.452718 255 0 0 255 -0.007364 -2.281198
0.476379 -2.233923 -0.666779 0.2548426 -0.9011375 -0.350723 255 0 0 255 0.476379 -2.233923
1.380091 -1.502328 -1.230793 0.5877242 -0.7264829 -0.3560939 255 0 0 255 1.380091 -1.502328
1.376814 -1.887351 -0.450699 0.5772887 -0.7947177 -0.1875144 255 0 0 255 1.376814 -1.887351
1.932321 -1.242658 -0.631204 0.8089707 -0.5258381 -0.262794 255 0 0 255 1.932321 -1.242658
1.742956 -1.216742 -1.078349 0.7721163 -0.522938 -0.3610711 255 0 0 255 1.742956 -1.216742
1.837924 -1.502276 0.17846 0.6848109 -0.7264674 -0.05726472 255 0 0 255 1.837924 -1.502276
2.0419 -1.216714 -0.158152 0.8369123 -0.5229315 -0.1616182 255 0 0 255 2.041900 -1.216714
1.191341 -2.021528 0.388521 0.4999305 -0.8506825 0.1625081 255 0 0 255 1.191341 -2.021528
1.558062 -1.725292 0.507673 0.6440079 -0.7358254 0.20932 255 0 0 255 1.558062 -1.725292
0.63915 -2.28118 -0.211027 0.4305967 -0.8916431 -0.1398539 255 0 0 255 0.639150 -2.281180
0.775331 -2.233873 0.253347 0.4123449 -0.9011123 0.1340463 255 0 0 255 0.775331 -2.233873
1.590931 -1.502241 0.938494 0.5203039 -0.7264445 0.4489569 255 0 0 255 1.590931 -1.502241
0.84806 -1.887253 1.176443 0.3567599 -0.7946798 0.4911277 255 0 0 255 0.848060 -1.887253
1.191347 -1.242573 1.648921 0.4999335 -0.5258029 0.6881845 255 0 0 255 1.191347 -1.242573
1.558066 -1.216661 1.33067 0.5820059 -0.5229044 0.6227682 255 0 0 255 1.558066 -1.216661
0.392199 -1.502192 1.809355 0.2661111 -0.7264311 0.6336267 255 0 0 255 0.392199 -1.502192
0.775337 -1.216635 1.899305 0.4123483 -0.5228984 0.7460203 255 0 0 255 0.775337 -1.216635
-0.007364 -2.021461 1.259389 -1.856959e-05 -0.8506559 0.5257229 255 0 0 255 -0.007364 -2.021461
-0.007364 -1.725218 1.644951 -1.887246e-05 -0.735795 0.6772045 255 0 0 255 -0.007364 -1.725218
0.392195 -2.281128 0.548983 0.2661098 -0.8916108 0.3663548 255 0 0 255 0.392195 -2.281128
-0.007363 -2.233825 0.82199 -1.760584e-05 -0.9010879 0.4336364 255 0 0 255 -0.007363 -2.233825
-0.406924 -1.502182 1.809344 -0.2661449 -0.7264245 0.6336201 255 0 0 255 -0.406924 -1.502182
-0.862782 -1.887226 1.176426 -0.3567923 -0.7946692 0.4911213 255 0 0 255 -0.862782 -1.887226
-1.206052 -1.242549 1.648891 -0.4999603 -0.5257928 0.6881728 255 0 0 255 -1.206052 -1.242549
-0.790054 -1.21662 1.899282 -0.4123787 -0.5228906 0.7460089 255 0 0 255 -0.790054 -1.216620
-1.605619 -1.502204 0.938471 -0.5203311 -0.7264307 0.4489477 255 0 0 255 -1.605619 -1.502204
-1.572755 -1.216631 1.330638 -0.5820305 -0.522893 0.6227548 255 0 0 255 -1.572755 -1.216631
-1.206047 -2.02149 0.388513 -0.4999576 -0.8506672 0.1625044 255 0 0 255 -1.206047 -2.021490
-1.572751 -1.72525 0.507659 -0.6440297 -0.735808 0.2093142 255 0 0 255 -1.572751 -1.725250
-0.40692 -2.281114 0.54898 -0.2661435 -0.8916016 0.3663526 255 0 0 255 -0.406920 -2.281114
-0.790047 -2.233846 0.253344 -0.4123757 -0.9010984 0.1340449 255 0 0 255 -0.790047 -2.233846
-1.852599 -1.502232 0.178455 -0.6848305 -0.7264491 -0.05726251 255 0 0 255 -1.852599 -1.502232
-1.391516 -1.887307 -0.450688 -0.5773135 -0.7947006 -0.1875106 255 0 0 255 -1.391516 -1.887307
-1.94699 -1.242619 -0.631185 -0.7048404 -0.6714029 -0.2289504 255 0 0 255 -1.946990 -1.242619
-2.056562 -1.216675 -0.158147 -0.7317213 -0.6692308 -0.1292835 255 0 0 255 -2.056562 -1.216675
-1.394789 -1.502295 -1.230766 -0.587748 -0.7264675 -0.3560862 255 0 0 255 -1.394789 -1.502295
-1.757635 -1.216708 -1.07832 -0.6680145 -0.6692411 -0.3253813 255 0 0 255 -1.757635 -1.216708
-0.653872 -2.281157 -0.211025 -0.4306281 -0.8916281 -0.1398528 255 0 0 255 -0.653872 -2.281157
-0.654059 -0.822156 2.149334 -0.1362818 -0.4029824 0.9050041 255 1 1 255 -0.654059 -0.822156
-0.007368 -1.054126 2.143425 -1.971309e-05 -0.4472015 0.8944333 255 0 0 255 -0.007368 -1.054126
-0.007366 -0.401895 2.359469 -1.859276e-05 -0.3144374 0.9492782 255 1 1 255 -0.007366 -0.401895
-0.491241 -0.393251 2.310889 -0.1024922 -0.3142002 0.943808 255 1 1 255 -0.491241 -0.393251
-0.407031 -1.502121 1.809371 -0.08423661 -0.5462635 0.8333669 255 0 0 255 -0.407031 -1.502121
-0.790258 -1.216466 1.899298 -0.1658215 -0.488538 0.856641 255 0 0 255 -0.790258 -1.216466
0.392302 -1.502131 1.809383 0.08419818 -0.5462644 0.8333703 255 0 0 255 0.392302 -1.502131
0.639334 -0.822165 2.149357 0.1362423 -0.4029849 0.905009 255 1 1 255 0.639334 -0.822165
0.775538 -1.216482 1.899322 0.1657829 -0.4885411 0.8566467 255 0 0 255 0.775538 -1.216482
0.476515 -0.393254 2.310907 0.1024534 -0.3142014 0.9438118 255 1 1 255 0.476515 -0.393254
-2.252356 -0.822193 0.048474 -0.9028056 -0.4029973 0.1501176 255 0 0 255 -2.252356 -0.822193
-2.046845 -1.054153 0.661709 -0.8506348 -0.4472122 0.2764448 255 0 0 255 -2.046845 -1.054153
-2.252328 -0.401906 0.728469 -0.9027985 -0.3144461 0.2933915 255 1 1 255 -2.252328 -0.401906
-2.355688 -0.393267 0.253252 -0.9292688 -0.3142114 0.1942442 255 1 1 255 -2.355688 -0.393267
-1.852658 -1.502171 0.178361 -0.8185868 -0.5462763 0.1774763 255 0 0 255 -1.852658 -1.502171
-2.05664 -1.216521 -0.158336 -0.9033914 -0.425957 -0.04944405 255 0 0 255 -2.056640 -1.216521
-1.605614 -1.502143 0.938577 -0.7665269 -0.5462747 0.3376694 255 0 0 255 -1.605614 -1.502143
-1.852606 -0.822169 1.278574 -0.8185766 -0.40299 0.4093061 255 0 0 255 -1.852606 -0.822169
-1.572709 -1.216478 1.330835 -0.763449 -0.4885468 0.4224545 255 0 0 255 -1.572709 -1.216478
-2.05658 -0.393259 1.17365 -0.8659256 -0.3142072 0.3891616 255 1 1 255 -2.056580 -0.393259
-0.748177 -0.822253 -2.120947 -0.4217365 -0.4030245 -0.8122251 255 0 0 255 -0.748177 -0.822253
-1.267928 -1.054232 -1.735966 -0.5257655 -0.4472437 -0.7235633 255 0 0 255 -1.267928 -1.054232
-1.394937 -0.401939 -1.910789 -0.5580066 -0.3144694 -0.7679437 255 0 0 255 -1.394937 -0.401939
-0.974886 -0.393298 -2.155956 -0.4718859 -0.3142349 -0.8237598 255 0 0 255 -0.974886 -0.393298
-0.748185 -1.502261 -1.700625 -0.4217265 -0.5463137 -0.723663 255 0 0 255 -0.748185 -1.502261
-0.490989 -1.216597 -1.998694 -0.3694045 -0.4885876 -0.7904571 255 0 0 255 -0.490989 -1.216597
-1.394892 -1.502234 -1.230726 -0.5580028 -0.5463102 -0.6246424 255 0 0 255 -1.394892 -1.502234
-1.794617 -0.822228 -1.360587 -0.6422269 -0.4030175 -0.6520135 255 0 0 255 -1.794617 -0.822228
-1.75781 -1.216554 -1.078213 -0.6376936 -0.4885785 -0.5955149 255 0 0 255 -1.757810 -1.216554
-1.757866 -0.39329 -1.587027 -0.6377003 -0.3142309 -0.703276 255 0 0 255 -1.757866 -0.393290
1.779939 -0.822252 -1.360625 0.6422044 -0.4030277 -0.6520293 255 0 0 255 1.779939 -0.822252
1.253222 -1.054254 -1.736002 0.5257387 -0.4472526 -0.7235773 255 0 0 255 1.253222 -1.054254
1.380239 -0.401948 -1.910831 0.5579823 -0.3144761 -0.7679586 255 0 0 255 1.380239 -0.401948
1.743187 -0.393301 -1.587069 0.6376785 -0.3142382 -0.7032925 255 0 0 255 1.743187 -0.393301
1.380194 -1.502267 -1.230752 0.5579789 -0.546321 -0.6246543 255 0 0 255 1.380194 -1.502267
1.74313 -1.216587 -1.078242 0.6376715 -0.4885909 -0.5955284 255 0 0 255 1.743130 -1.216587
0.733466 -1.502279 -1.700645 0.4216958 -0.5463219 -0.7236748 255 0 0 255 0.733466 -1.502279
0.733458 -0.822263 -2.120972 0.4217055 -0.4030316 -0.8122377 255 0 0 255 0.733458 -0.822263
0.476266 -1.216605 -1.998708 0.3693706 -0.4885948 -0.7904686 255 0 0 255 0.476266 -1.216605
0.960174 -0.393305 -2.155988 0.4718575 -0.3142401 -0.8237741 255 0 0 255 0.960174 -0.393305
1.837929 -0.822192 1.278614 0.8185635 -0.4030011 0.4093215 255 0 0 255 1.837929 -0.822192
2.03218 -1.054189 0.661735 0.8506239 -0.4472265 0.2764552 255 0 0 255 2.032180 -1.054189
2.237677 -0.401921 0.728498 0.9027916 -0.3144558 0.2934023 255 1 1 255 2.237677 -0.401921
2.041917 -0.393272 1.17369 0.8659157 -0.3142175 0.3891753 255 1 1 255 2.041917 -0.393272
1.590924 -1.502181 0.938604 0.7665104 -0.5462908 0.3376808 255 0 0 255 1.590924 -1.502181
1.558019 -1.216507 1.330869 0.7634329 -0.4885597 0.4224686 255 0 0 255 1.558019 -1.216507
1.837982 -1.502215 0.17837 0.818574 -0.5462939 0.1774817 255 0 0 255 1.837982 -1.502215
2.237707 -0.822223 0.04848 0.9027985 -0.4030107 0.1501244 255 0 0 255 2.237707 -0.822223
2.041978 -1.216561 -0.158337 0.8659285 -0.4885709 0.1070814 255 0 0 255 2.041978 -1.216561
2.341046 -0.393283 0.253265 0.9292632 -0.3142219 0.1942534 255 1 1 255 2.341046 -0.393283
-0.748324 0.017823 -2.281401 -0.1571381 -0.0955023 -0.9829481 255 0 0 255 -0.748324 0.017823
-0.007367 -0.432 -2.356149 -1.880746e-05 -0.187724 -0.9822218 255 0 0 255 -0.007367 -0.432000
-0.748287 -0.822533 -2.120798 -0.157143 -0.2737067 -0.9488893 255 0 0 255 -0.748287 -0.822533
-0.974962 -0.393715 -2.155842 -0.2062318 -0.1836889 -0.9611071 255 0 0 255 -0.974962 -0.393715
-0.007364 0.438036 -2.361723 -1.822308e-05 -0.006406487 -0.9999795 255 1 1 255 -0.007364 0.438036
-0.491188 0.429395 -2.313153 -0.1031269 -0.008276964 -0.9946338 255 1 1 255 -0.491188 0.429395
0.733604 0.017823 -2.281428 0.1571012 -0.09550481 -0.9829537 255 0 0 255 0.733604 0.017823
0.476465 0.4294 -2.313171 0.1030893 -0.008277605 -0.9946377 255 1 1 255 0.476465 0.429400
0.733567 -0.822543 -2.120823 0.1571063 -0.2737071 -0.9488952 255 0 0 255 0.733567 -0.822543
0.96025 -0.393722 -2.155874 0.2061957 -0.1836909 -0.9611145 255 0 0 255 0.960250 -0.393722
1.932488 0.017823 -1.410348 0.8863164 -0.0955034 -0.4531252 255 1 1 255 1.932488 0.017823
2.232495 -0.431988 -0.728727 0.9341664 -0.1877193 -0.303471 255 0 0 255 2.232495 -0.431988
1.779761 -0.822532 -1.360686 0.853925 -0.2737005 -0.4426061 255 0 0 255 1.779761 -0.822532
1.743052 -0.393718 -1.58711 0.850378 -0.1836872 -0.4930681 255 0 0 255 1.743052 -0.393718
2.237794 0.438024 -0.730458 0.9510529 -0.006407168 -0.3089616 255 1 1 255 2.237794 0.438024
2.042126 0.429391 -1.175603 0.9141155 -0.008277925 -0.4053693 255 1 1 255 2.042126 0.429391
2.390343 0.017823 -0.000962 0.9834028 -0.09549924 -0.1542688 255 1 1 255 2.390343 0.017823
2.341092 0.429382 -0.255318 0.9778278 -0.008277277 -0.209247 255 1 1 255 2.341092 0.429382
2.237599 -0.822503 0.04863 0.951014 -0.2736991 -0.1437401 255 0 0 255 2.237599 -0.822503
2.340961 -0.3937 0.253373 0.9778005 -0.1836829 -0.10083 255 1 1 255 2.340961 -0.393700
1.932341 0.017823 1.408316 0.7048286 -0.0954968 0.7029204 255 1 1 255 1.932341 0.017823
1.376829 -0.431951 1.904231 0.577295 -0.1877048 0.7946681 255 1 1 255 1.376829 -0.431951
1.837931 -0.822473 1.278426 0.6848173 -0.2736818 0.6753693 255 0 0 255 1.837931 -0.822473
2.041913 -0.393689 1.17355 0.73171 -0.1836743 0.6564026 255 1 1 255 2.041913 -0.393689
1.380111 0.437991 1.908734 0.587732 -0.006405003 0.8090304 255 1 1 255 1.380111 0.437991
1.742979 0.42936 1.585113 0.6680015 -0.008276521 0.7441139 255 1 1 255 1.742979 0.429360
0.733513 0.017823 2.279223 0.4506202 -0.09549124 0.8875939 255 1 1 255 0.733513 0.017823
0.960181 0.429352 2.153788 0.5011803 -0.008274532 0.8653034 255 1 1 255 0.960181 0.429352
0.639158 -0.822445 2.1493 0.4306005 -0.2736796 0.8600481 255 1 1 255 0.639158 -0.822445
0.476386 -0.393671 2.31086 0.3980698 -0.1836699 0.8987802 255 1 1 255 0.476386 -0.393671
-0.748232 0.017823 2.279197 -0.4506495 -0.09549168 0.887579 255 1 1 255 -0.748232 0.017823
-1.391531 -0.43194 1.904187 -0.5773199 -0.1877008 0.794651 255 1 1 255 -1.391531 -0.431940
-0.653879 -0.822437 2.149278 -0.430631 -0.2736748 0.8600343 255 1 1 255 -0.653879 -0.822437
-0.491108 -0.393669 2.310843 -0.3981014 -0.1836681 0.8987666 255 1 1 255 -0.491108 -0.393669
-1.394809 0.437982 1.908693 -0.5877563 -0.006405264 0.8090127 255 1 1 255 -1.394809 0.437982
-0.974893 0.429345 2.153757 -0.5012079 -0.00827554 0.8652874 255 1 1 255 -0.974893 0.429345
-1.94701 0.017823 1.408273 -0.7048475 -0.09549282 0.702902 255 1 1 255 -1.947010 0.017823
-1.757658 0.429349 1.58507 -0.6680226 -0.008275787 0.744095 255 1 1 255 -1.757658 0.429349
-1.852606 -0.822448 1.278389 -0.6848369 -0.2736757 0.6753517 255 0 0 255 -1.852606 -0.822448
-2.056575 -0.393676 1.173513 -0.7317274 -0.183669 0.6563846 255 1 1 255 -2.056575 -0.393676
-2.404981 0.017992 -0.001154 -0.9833996 -0.09542644 -0.1543346 255 1 1 255 -2.404981 0.017992
-2.247128 -0.431774 -0.728877 -0.9341643 -0.1876363 -0.3035289 255 0 0 255 -2.247128 -0.431774
-2.252314 -0.822307 0.048437 -0.9510263 -0.2736175 -0.1438142 255 0 0 255 -2.252314 -0.822307
-2.355653 -0.393518 0.253175 -0.9778077 -0.1836045 -0.1009037 255 1 1 255 -2.355653 -0.393518
-2.252368 0.438153 -0.73058 -0.951037 -0.006333447 -0.3090121 255 1 1 255 -2.252368 0.438153
-2.355689 0.429514 -0.255485 -0.967796 0.1462089 -0.2049243 255 1 1 255 -2.355689 0.429514
-1.947088 0.017992 -1.410401 -0.8863023 -0.09542625 -0.453169 255 1 1 255 -1.947088 0.017992
-2.056702 0.429514 -1.175669 -0.914097 -0.008205288 -0.4054125 255 1 1 255 -2.056702 0.429514
-1.79443 -0.822306 -1.360785 -0.853928 -0.2736166 -0.4426523 255 0 0 255 -1.794430 -0.822306
-1.75769 -0.393518 -1.587162 -0.8503721 -0.1836041 -0.4931094 255 0 0 255 -1.757690 -0.393518
-1.947043 -1.242445 -0.631374 -0.8862904 -0.3627129 -0.2879734 255 0 0 255 -1.947043 -1.242445
-1.757664 -1.216521 -1.078489 -0.8503647 -0.3590021 -0.3847041 255 0 0 255 -1.757664 -1.216521
-0.407226 2.317296 -0.551272 -0.08431742 0.9896703 -0.1159455 255 1 1 255 -0.407226 2.317296
-0.00759 2.415787 -0.001209 -0.000107451 1 -3.644322e-05 255 1 1 255 -0.007590 2.415787
0.392082 2.317379 -0.551292 0.08410855 0.9896885 -0.1159414 255 1 1 255 0.392082 2.317379
-0.007574 2.270028 -0.824352 -0.00010656 0.9846814 -0.1743634 255 1 1 255 -0.007574 2.270028
-0.654221 2.317297 0.208901 -0.1363647 0.9896705 0.0442389 255 1 1 255 -0.654221 2.317297
-0.790414 2.269969 -0.255564 -0.1659008 0.984668 -0.05390565 255 1 1 255 -0.790414 2.269969
-0.007579 2.317381 0.678739 -0.0001034871 0.9896889 0.1432336 255 1 1 255 -0.007579 2.317381
-0.491409 2.27003 0.664738 -0.102574 0.9846818 0.1409976 255 1 1 255 -0.491409 2.270030
0.6391 2.317432 0.208913 0.1361505 0.9897001 0.04423549 255 1 1 255 0.639100 2.317432
0.476281 2.270127 0.664766 0.1023614 0.9847037 0.1409995 255 1 1 255 0.476281 2.270127
0.77532 2.270125 -0.255581 0.3377819 0.9347955 -0.1098218 255 1 1 255 0.775320 2.270125
1.590924 1.538496 -0.940731 0.5203007 0.7264467 -0.4489571 255 1 1 255 1.590924 1.538496
0.848049 1.923507 -1.178679 0.3567557 0.7946814 -0.4911282 255 1 1 255 0.848049 1.923507
1.191332 2.057782 -0.390755 0.4999268 0.8506848 -0.1625076 255 1 1 255 1.191332 2.057782
1.558056 1.761546 -0.509907 0.6440057 0.7358276 -0.2093192 255 1 1 255 1.558056 1.761546
1.191338 1.278826 -1.651159 0.4999302 0.5258042 -0.6881859 255 1 1 255 1.191338 1.278826
1.55806 1.252914 -1.332908 0.5820028 0.5229056 -0.6227701 255 1 1 255 1.558060 1.252914
0.392188 1.538442 -1.81159 0.2661053 0.7264317 -0.6336284 255 1 1 255 0.392188 1.538442
0.775327 1.252887 -1.901542 0.4123439 0.5228995 -0.7460219 255 1 1 255 0.775327 1.252887
-0.007376 2.05771 -1.261623 -2.336157e-05 0.8506548 -0.5257246 255 1 1 255 -0.007376 2.057710
-0.007375 1.761467 -1.647185 -2.345242e-05 0.7357947 -0.6772047 255 1 1 255 -0.007375 1.761467
0.392183 2.317379 -0.551218 0.2661068 0.8916124 -0.3663529 255 1 1 255 0.392183 2.317379
-0.007375 2.270076 -0.824224 -2.227869e-05 0.9010877 -0.433637 255 1 1 255 -0.007375 2.270076
-0.406935 1.53843 -1.811576 -0.2661482 0.7264229 -0.6336205 255 1 1 255 -0.406935 1.538430
-0.862793 1.923473 -1.178658 -0.3567967 0.7946679 -0.4911202 255 1 1 255 -0.862793 1.923473
-1.206061 1.278795 -1.651121 -0.4999627 0.5257909 -0.6881724 255 1 1 255 -1.206061 1.278795
-0.790064 1.252867 -1.901513 -0.4123824 0.5228895 -0.7460077 255 1 1 255 -0.790064 1.252867
-1.605625 1.538447 -0.940702 -0.5203369 0.7264284 -0.4489447 255 1 1 255 -1.605625 1.538447
-1.572762 1.252877 -1.332869 -0.5820337 0.5228916 -0.622753 255 1 1 255 -1.572762 1.252877
-1.206055 2.057733 -0.390747 -0.4999616 0.850665 -0.1625035 255 1 1 255 -1.206055 2.057733
-1.572758 1.761493 -0.509892 -0.644033 0.7358055 -0.209313 255 1 1 255 -1.572758 1.761493
-0.406932 2.317361 -0.551214 -0.2661487 0.8916011 -0.3663502 255 1 1 255 -0.406932 2.317361
-0.790058 2.270091 -0.255578 -0.4123806 0.9010963 -0.1340437 255 1 1 255 -0.790058 2.270091
-1.852603 1.538474 -0.180688 -0.6848336 0.7264462 0.05726122 255 1 1 255 -1.852603 1.538474
-1.391524 1.92355 0.448453 -0.5773168 0.7946984 0.1875098 255 1 1 255 -1.391524 1.923550
-1.946994 1.278863 0.628949 -0.8089848 0.5258201 0.2627868 255 1 1 255 -1.946994 1.278863
-2.056565 1.252919 0.155912 -0.8369245 0.5229141 0.1616117 255 1 1 255 -2.056565 1.252919
-1.394797 1.538539 1.228529 -0.5877515 0.7264652 0.356085 255 1 1 255 -1.394797 1.538539
-1.75764 1.252952 1.076083 -0.7721329 0.5229214 0.3610596 255 1 1 255 -1.757640 1.252952
-0.748232 2.05782 1.018429 -0.3090167 0.8506999 0.4252275 255 1 1 255 -0.748232 2.057820
-0.974886 1.761588 1.330399 -0.398063 0.7358449 0.5477939 255 1 1 255 -0.974886 1.761588
-0.653883 2.317402 0.208791 -0.4306314 0.8916265 0.139853 255 1 1 255 -0.653883 2.317402
-0.491112 2.270152 0.66454 -0.2548801 0.9011279 0.3507203 255 1 1 255 -0.491112 2.270152
-0.748262 1.538568 1.698306 -0.1571266 0.7264837 0.6689789 255 1 1 255 -0.748262 1.538568
-0.00738 1.923633 1.454156 -2.330222e-05 0.7947304 0.6069627 255 1 1 255 -0.007380 1.923633
-0.007375 1.278935 2.03828 -2.206936e-05 0.5258501 0.8505772 255 1 1 255 -0.007375 1.278935
-0.491152 1.252997 1.996326 -0.1048824 0.5229446 0.8458893 255 1 1 255 -0.491152 1.252997
0.733522 1.53859 1.69833 0.1570814 0.7264903 0.6689823 255 1 1 255 0.733522 1.538590
0.476408 1.253009 1.996344 0.1048363 0.5229475 0.8458931 255 1 1 255 0.476408 1.253009
0.733491 2.05785 1.018444 0.3089739 0.8507117 0.425235 255 1 1 255 0.733491 2.057850
0.960157 1.76162 1.330423 0.3980252 0.7358585 0.5478031 255 1 1 255 0.960157 1.761620
-0.007376 2.317446 0.678519 -2.217819e-05 0.8916538 0.452718 255 1 1 255 -0.007376 2.317446
0.476368 2.270173 0.664546 0.2548375 0.9011385 0.350724 255 1 1 255 0.476368 2.270173
1.380083 1.538581 1.228563 0.5877225 0.7264839 0.3560946 255 1 1 255 1.380083 1.538581
1.376805 1.923606 0.448467 0.5772855 0.7947199 0.1875152 255 1 1 255 1.376805 1.923606
1.932317 1.278911 0.628973 0.7048187 0.6714234 0.228957 255 1 1 255 1.932317 1.278911
1.74295 1.252994 1.076119 0.6679913 0.6692598 0.3253905 255 1 1 255 1.742950 1.252994
1.837919 1.53853 -0.180694 0.6848086 0.7264696 0.05726488 255 1 1 255 1.837919 1.538530
2.041897 1.252968 0.155919 0.7317011 0.6692521 0.1292871 255 1 1 255 2.041897 1.252968
0.63914 2.317432 0.208794 0.4305932 0.8916447 0.1398544 255 1 1 255 0.639140 2.317432
-0.748184 0.8585 2.118711 -0.4217391 0.4030242 0.8122239 255 1 1 255 -0.748184 0.858500
-1.267933 1.090477 1.73373 -0.5257676 0.4472422 0.7235626 255 1 1 255 -1.267933 1.090477
-1.394942 0.438186 1.908552 -0.558009 0.3144692 0.7679421 255 1 1 255 -1.394942 0.438186
-0.974892 0.429546 2.153719 -0.471888 0.3142342 0.8237588 255 1 1 255 -0.974892 0.429546
-0.748192 1.538507 1.698391 -0.4217294 0.5463107 0.7236636 255 1 1 255 -0.748192 1.538507
-0.490996 1.252843 1.996459 -0.3694068 0.488586 0.790457 255 1 1 255 -0.490996 1.252843
-1.394896 1.538479 1.228491 -0.5580053 0.5463086 0.6246417 255 1 1 255 -1.394896 1.538479
-1.79462 0.858474 1.358351 -0.6422278 0.4030161 0.6520134 255 1 1 255 -1.794620 0.858474
-1.757813 1.252799 1.075978 -0.6376946 0.4885778 0.5955144 255 1 1 255 -1.757813 1.252799
-1.757868 0.429537 1.58479 -0.6377023 0.3142297 0.7032748 255 1 1 255 -1.757868 0.429537
1.779934 0.858503 1.358396 0.6422015 0.4030281 0.6520318 255 1 1 255 1.779934 0.858503
1.253213 1.090505 1.733773 0.5257353 0.4472532 0.7235793 255 1 1 255 1.253213 1.090505
1.380231 0.438198 1.908602 0.5579791 0.3144765 0.7679609 255 1 1 255 1.380231 0.438198
1.743181 0.42955 1.584841 0.6376758 0.3142386 0.7032949 255 1 1 255 1.743181 0.429550
1.380186 1.538519 1.228522 0.5579759 0.5463225 0.6246557 255 1 1 255 1.380186 1.538519
1.743125 1.25284 1.076012 0.7599667 0.4259854 0.4909044 255 1 1 255 1.743125 1.252840
0.733456 1.538529 1.698414 0.4216918 0.5463229 0.7236762 255 1 1 255 0.733456 1.538529
0.733448 0.858512 2.118741 0.4217021 0.4030308 0.8122398 255 1 1 255 0.733448 0.858512
0.476256 1.252855 1.996476 0.369367 0.4885951 0.7904701 255 1 1 255 0.476256 1.252855
0.960165 0.429554 2.153757 0.4718537 0.3142399 0.8237763 255 1 1 255 0.960165 0.429554
1.837926 0.858444 -1.28085 0.8185629 0.4030021 -0.4093215 255 1 1 255 1.837926 0.858444
2.032178 1.090442 -0.663968 0.8506232 0.4472281 -0.2764547 255 1 1 255 2.032178 1.090442
2.237677 0.438171 -0.730732 0.9027908 0.3144575 -0.2934029 255 1 1 255 2.237677 0.438171
2.041915 0.429522 -1.175926 0.8659149 0.3142185 -0.3891762 255 1 1 255 2.041915 0.429522
1.590919 1.538435 -0.940838 0.7665091 0.5462927 -0.3376806 255 1 1 255 1.590919 1.538435
1.558014 1.25276 -1.333105 0.7634317 0.4885615 -0.4224686 255 1 1 255 1.558014 1.252760
1.837978 1.538469 -0.180601 0.8185731 0.5462955 -0.1774807 255 1 1 255 1.837978 1.538469
2.237705 0.858475 -0.050711 0.9027979 0.4030125 -0.1501228 255 1 1 255 2.237705 0.858475
2.041975 1.252813 0.156107 0.8659279 0.4885722 -0.1070799 255 1 1 255 2.041975 1.252813
2.341046 0.429533 -0.255497 0.9292629 0.3142239 -0.1942521 255 1 1 255 2.341046 0.429533
-0.65407 0.858404 -2.151566 -0.1362865 0.4029822 -0.9050035 255 1 1 255 -0.654070 0.858404
-0.00738 1.090375 -2.14566 -2.415844e-05 0.4472021 -0.894433 255 1 1 255 -0.007380 1.090375
-0.007377 0.438145 -2.361704 -2.320243e-05 0.3144382 -0.949278 255 1 1 255 -0.007377 0.438145
-0.491251 0.429499 -2.313122 -0.1024974 0.3142004 -0.9438074 255 1 1 255 -0.491251 0.429499
-0.407043 1.538368 -1.811604 -0.08424139 0.5462644 -0.8333659 255 1 1 255 -0.407043 1.538368
-0.790268 1.252713 -1.90153 -0.1658259 0.4885384 -0.85664 255 1 1 255 -0.790268 1.252713
0.392291 1.538381 -1.811619 0.08419383 0.5462648 -0.8333703 255 1 1 255 0.392291 1.538381
0.639324 0.858415 -2.151594 0.1362389 0.4029858 -0.9050091 255 1 1 255 0.639324 0.858415
0.775528 1.252733 -1.901559 0.1657791 0.4885413 -0.8566474 255 1 1 255 0.775528 1.252733
0.476504 0.429504 -2.313144 0.1024501 0.3142026 -0.9438118 255 1 1 255 0.476504 0.429504
-2.252358 0.858438 -0.050708 -0.9028062 0.4029965 -0.1501163 255 1 1 255 -2.252358 0.858438
-2.046849 1.090397 -0.66394 -0.8506361 0.4472104 -0.2764437 255 1 1 255 -2.046849 1.090397
-2.252329 0.438153 -0.730699 -0.9027995 0.3144434 -0.2933911 255 1 1 255 -2.252329 0.438153
-1.852662 1.538414 -0.180595 -0.8185881 0.5462751 -0.1774743 255 1 1 255 -1.852662 1.538414
-2.056643 1.252764 0.156102 -0.865939 0.4885536 -0.107075 255 1 1 255 -2.056643 1.252764
-1.60562 1.538387 -0.940808 -0.7665282 0.5462734 -0.3376682 255 1 1 255 -1.605620 1.538387
-1.85261 0.858414 -1.280804 -0.8185781 0.4029873 -0.4093057 255 1 1 255 -1.852610 0.858414
-1.572716 1.252723 -1.333065 -0.7634511 0.4885446 -0.422453 255 1 1 255 -1.572716 1.252723
-2.056583 0.429506 -1.175879 -0.8659267 0.3142052 -0.3891607 255 1 1 255 -2.056583 0.429506
1.932338 0.018426 -1.410555 0.7048264 0.09549778 -0.7029225 255 1 1 255 1.932338 0.018426
1.376821 0.468201 -1.906471 0.5772921 0.1877052 -0.7946701 255 1 1 255 1.376821 0.468201
1.837927 0.858725 -1.280665 0.6848152 0.2736815 -0.6753715 255 1 1 255 1.837927 0.858725
2.04191 0.429939 -1.175788 0.7317085 0.1836746 -0.6564042 255 1 1 255 2.041910 0.429939
1.380104 -0.401744 -1.910973 0.5877302 0.006404627 -0.8090317 255 0 0 255 1.380104 -0.401744
1.742974 -0.393113 -1.587352 0.667999 0.008275997 -0.7441162 255 0 0 255 1.742974 -0.393113
0.733503 0.018426 -2.281461 0.4506166 0.09549165 -0.8875957 255 0 0 255 0.733503 0.018426
0.960172 -0.393104 -2.156027 0.5011777 0.008274567 -0.8653049 255 0 0 255 0.960172 -0.393104
0.639147 0.858696 -2.151537 0.4305965 0.2736808 -0.8600497 255 1 1 255 0.639147 0.858696
0.476375 0.429921 -2.313097 0.398066 0.183671 -0.8987816 255 1 1 255 0.476375 0.429921
-0.748243 0.018426 -2.281428 -0.4506536 0.09549147 -0.8875769 255 0 0 255 -0.748243 0.018426
-1.391539 0.468187 -1.906416 -0.5773228 0.1877001 -0.7946491 255 1 1 255 -1.391539 0.468187
-0.65389 0.858685 -2.15151 -0.4306356 0.2736741 -0.8600323 255 1 1 255 -0.653890 0.858685
-0.491119 0.429916 -2.313075 -0.3981051 0.1836674 -0.8987651 255 1 1 255 -0.491119 0.429916
-1.394817 -0.401733 -1.910922 -0.5877585 0.006405279 -0.8090111 255 0 0 255 -1.394817 -0.401733
-0.974902 -0.393097 -2.155987 -0.5012113 0.008274765 -0.8652854 255 0 0 255 -0.974902 -0.393097
-1.947015 0.018425 -1.410502 -0.7048497 0.09549308 -0.7028998 255 1 1 255 -1.947015 0.018425
-1.757664 -0.3931 -1.587299 -0.6680248 0.008275723 -0.7440931 255 0 0 255 -1.757664 -0.393100
-1.852611 0.858694 -1.280619 -0.6848397 0.2736737 -0.6753498 255 1 1 255 -1.852611 0.858694
-2.056578 0.429923 -1.175743 -0.7317297 0.1836687 -0.6563822 255 1 1 255 -2.056578 0.429923
-2.404981 0.018425 -0.001272 -0.9834043 0.09549475 0.154262 255 1 1 255 -2.404981 0.018425
-2.247147 0.468217 0.726462 -0.9341717 0.1877118 0.3034591 255 1 1 255 -2.247147 0.468217
-2.252249 0.858718 -0.050862 -0.9510179 0.2736888 0.1437338 255 1 1 255 -2.252249 0.858718
-2.355603 0.429931 -0.255596 -0.9778023 0.1836758 0.1008252 255 1 1 255 -2.355603 0.429931
-2.252445 -0.401759 0.728195 -0.9510568 0.00640709 0.3089496 255 1 1 255 -2.252445 -0.401759
-2.355734 -0.393117 0.253073 -0.9778299 0.008276558 0.2092376 255 1 1 255 -2.355734 -0.393117
-1.947161 0.018425 1.408065 -0.8863249 0.09550051 0.4531091 255 1 1 255 -1.947161 0.018425
-2.056791 -0.393129 1.173327 -0.914122 0.008278015 0.4053548 255 1 1 255 -2.056791 -0.393129
-1.794444 0.858754 1.358409 -0.8539366 0.2736908 0.4425899 255 1 1 255 -1.794444 0.858754
-1.757736 0.429954 1.584828 -0.8503895 0.1836802 0.493051 255 1 1 255 -1.757736 0.429954
-0.748334 0.018425 2.279164 -0.1571415 0.09550255 0.9829475 255 1 1 255 -0.748334 0.018425
-0.00738 0.468249 2.353914 -2.340239e-05 0.187724 0.9822218 255 1 1 255 -0.007380 0.468249
-0.748297 0.85878 2.118561 -0.157147 0.2737065 0.9488886 255 1 1 255 -0.748297 0.858780
-0.974971 0.429963 2.153604 -0.2062358 0.1836892 0.9611062 255 1 1 255 -0.974971 0.429963
-0.007376 -0.401787 2.359488 -2.158985e-05 0.006406486 0.9999795 255 1 1 255 -0.007376 -0.401787
-0.491199 -0.393147 2.310917 -0.1031297 0.008276942 0.9946336 255 1 1 255 -0.491199 -0.393147
0.733594 0.018425 2.279197 0.1570954 0.09550428 0.9829547 255 1 1 255 0.733594 0.018425
0.476454 -0.393151 2.310938 0.1030843 0.008277171 0.9946382 255 1 1 255 0.476454 -0.393151
0.733557 0.858792 2.118592 0.1571006 0.2737072 0.9488961 255 1 1 255 0.733557 0.858792
0.960241 0.429971 2.153644 0.2061901 0.1836906 0.9611157 255 1 1 255 0.960241 0.429971
1.932597 0.018257 1.407964 0.8863539 0.09543662 0.4530658 255 1 1 255 1.932597 0.018257
2.232583 0.468041 0.726342 0.9342005 0.1876438 0.3034127 255 1 1 255 2.232583 0.468041
1.779922 0.858617 1.35834 0.8539779 0.2736281 0.4425488 255 1 1 255 1.779922 0.858617
1.743198 0.429801 1.584757 0.8504267 0.1836166 0.4930105 255 1 1 255 1.743198 0.429801
2.237818 -0.40192 0.728064 0.9510729 0.006334477 0.3089017 255 1 1 255 2.237818 -0.401920
2.042191 -0.393291 1.173204 0.9141445 0.008208018 0.4053056 255 1 1 255 2.042191 -0.393291
2.390343 0.018257 -0.00139 0.9834192 0.09542484 0.15421 255 1 1 255 2.390343 0.018257
2.341082 -0.393271 0.252951 0.9778411 0.008205183 0.2091878 255 1 1 255 2.341082 -0.393271
2.23767 0.858553 -0.050981 0.9510431 0.2736255 0.1436879 255 1 1 255 2.237670 0.858553
2.340983 0.429761 -0.255709 0.9778203 0.1836071 0.1007759 255 1 1 255 2.340983 0.429761
1.93247 1.278736 0.628851 0.886321 0.3627264 0.2878623 255 1 1 255 1.932470 1.278736
2.042019 1.25278 0.155799 0.9141041 0.3590119 0.1884787 255 1 1 255 2.042019 1.252780
3 1 2 3 
3 1 0 5 
3 1 4 7 
3 1 6 9 
3 1 8 10 
3 12 13 14 
3 12 11 16 
3 12 15 18 
3 12 17 20 
3 12 19 22 
3 12 21 10 
3 24 19 20 
3 24 23 26 
3 24 25 28 
3 24 27 30 
3 24 29 32 
3 24 31 22 
3 34 29 30 
3 34 33 36 
3 34 35 38 
3 34 37 40 
3 34 39 42 
3 34 41 32 
3 44 39 40 
3 44 43 46 
3 44 45 48 
3 44 47 50 
3 44 49 52 
3 44 51 42 
3 54 49 50 
3 54 53 56 
3 54 55 58 
3 54 57 14 
3 54 13 10 
3 54 59 52 
3 61 62 63 
3 61 60 65 
3 61 64 40 
3 61 66 68 
3 61 67 69 
3 71 72 73 
3 71 70 75 
3 71 74 50 
3 71 76 78 
3 71 77 79 
3 81 82 83 
3 81 80 85 
3 81 84 14 
3 81 86 88 
3 81 87 89 
3 91 92 93 
3 91 90 95 
3 91 94 20 
3 91 96 98 
3 91 97 99 
3 101 102 103 
3 101 100 105 
3 101 104 30 
3 101 106 108 
3 101 107 109 
3 111 112 113 
3 111 110 115 
3 111 114 117 
3 111 116 119 
3 111 118 18 
3 111 15 16 
3 121 122 123 
3 121 120 125 
3 121 124 127 
3 121 126 129 
3 121 128 28 
3 121 25 26 
3 131 132 133 
3 131 130 135 
3 131 134 137 
3 131 136 139 
3 131 138 38 
3 131 35 36 
3 141 142 143 
3 141 140 145 
3 141 144 147 
3 141 146 149 
3 141 148 48 
3 141 45 46 
3 151 152 153 
3 151 150 155 
3 151 154 157 
3 151 156 159 
3 151 158 161 
3 151 160 75 
3 163 164 165 
3 163 162 167 
3 163 166 169 
3 163 168 171 
3 163 170 172 
3 174 175 176 
3 174 173 178 
3 174 177 180 
3 174 179 182 
3 174 181 184 
3 174 183 172 
3 186 181 182 
3 186 185 188 
3 186 187 190 
3 186 189 192 
3 186 191 194 
3 186 193 184 
3 196 191 192 
3 196 195 198 
3 196 197 200 
3 196 199 202 
3 196 201 204 
3 196 203 194 
3 206 201 202 
3 206 205 208 
3 206 207 210 
3 206 209 212 
3 206 211 214 
3 206 213 204 
3 216 211 212 
3 216 215 218 
3 216 217 220 
3 216 219 176 
3 216 175 172 
3 216 221 214 
3 223 224 225 
3 223 222 227 
3 223 226 202 
3 223 228 230 
3 223 229 231 
3 233 234 235 
3 233 232 237 
3 233 236 212 
3 233 238 240 
3 233 239 241 
3 243 244 245 
3 243 242 247 
3 243 246 176 
3 243 248 250 
3 243 249 251 
3 253 254 255 
3 253 252 257 
3 253 256 182 
3 253 258 260 
3 253 259 261 
3 263 264 155 
3 263 262 266 
3 263 265 192 
3 263 267 269 
3 263 268 270 
3 272 273 274 
3 272 271 276 
3 272 275 278 
3 272 277 280 
3 272 279 180 
3 272 177 178 
3 282 283 284 
3 282 281 286 
3 282 285 288 
3 282 287 290 
3 282 289 190 
3 282 187 188 
3 292 293 294 
3 292 291 296 
3 292 295 298 
3 292 297 300 
3 292 299 200 
3 292 197 198 
3 302 303 304 
3 302 301 306 
3 302 305 308 
3 302 307 310 
3 302 309 210 
3 302 207 208 
3 312 313 314 
3 312 311 316 
3 312 315 318 
3 312 317 320 
3 312 319 322 
3 312 321 237 
3 0 1 3 
3 4 1 5 
3 6 1 7 
3 8 1 9 
3 2 1 10 
3 11 12 14 
3 15 12 16 
3 17 12 18 
3 19 12 20 
3 21 12 22 
3 13 12 10 
3 23 24 20 
3 25 24 26 
3 27 24 28 
3 29 24 30 
3 31 24 32 
3 19 24 22 
3 33 34 30 
3 35 34 36 
3 37 34 38 
3 39 34 40 
3 41 34 42 
3 29 34 32 
3 43 44 40 
3 45 44 46 
3 47 44 48 
3 49 44 50 
3 51 44 52 
3 39 44 42 
3 53 54 50 
3 55 54 56 
3 57 54 58 
3 13 54 14 
3 59 54 10 
3 49 54 52 
3 60 61 63 
3 64 61 65 
3 66 61 40 
3 67 61 68 
3 62 61 69 
3 70 71 73 
3 74 71 75 
3 76 71 50 
3 77 71 78 
3 72 71 79 
3 80 81 83 
3 84 81 85 
3 86 81 14 
3 87 81 88 
3 82 81 89 
3 90 91 93 
3 94 91 95 
3 96 91 20 
3 97 91 98 
3 92 91 99 
3 100 101 103 
3 104 101 105 
3 106 101 30 
3 107 101 108 
3 102 101 109 
3 110 111 113 
3 114 111 115 
3 116 111 117 
3 118 111 119 
3 15 111 18 
3 112 111 16 
3 120 121 123 
3 124 121 125 
3 126 121 127 
3 128 121 129 
3 25 121 28 
3 122 121 26 
3 130 131 133 
3 134 131 135 
3 136 131 137 
3 138 131 139 
3 35 131 38 
3 132 131 36 
3 140 141 143 
3 144 141 145 
3 146 141 147 
3 148 141 149 
3 45 141 48 
3 142 141 46 
3 150 151 153 
3 154 151 155 
3 156 151 157 
3 158 151 159 
3 160 151 161 
3 152 151 75 
3 162 163 165 
3 166 163 167 
3 168 163 169 
3 170 163 171 
3 164 163 172 
3 173 174 176 
3 177 174 178 
3 179 174 180 
3 181 174 182 
3 183 174 184 
3 175 174 172 
3 185 186 182 
3 187 186 188 
3 189 186 190 
3 191 186 192 
3 193 186 194 
3 181 186 184 
3 195 196 192 
3 197 196 198 
3 199 196 200 
3 201 196 202 
3 203 196 204 
3 191 196 194 
3 205 206 202 
3 207 206 208 
3 209 206 210 
3 211 206 212 
3 213 206 214 
3 201 206 204 
3 215 216 212 
3 217 216 218 
3 219 216 220 
3 175 216 176 
3 221 216 172 
3 211 216 214 
3 222 223 225 
3 226 223 227 
3 228 223 202 
3 229 223 230 
3 224 223 231 
3 232 233 235 
3 236 233 237 
3 238 233 212 
3 239 233 240 
3 234 233 241 
3 242 243 245 
3 246 243 247 
3 248 243 176 
3 249 243 250 
3 244 243 251 
3 252 253 255 
3 256 253 257 
3 258 253 182 
3 259 253 260 
3 254 253 261 
3 262 263 155 
3 265 263 266 
3 267 263 192 
3 268 263 269 
3 264 263 270 
3 271 272 274 
3 275 272 276 
3 277 272 278 
3 279 272 280 
3 177 272 180 
3 273 272 178 
3 281 282 284 
3 285 282 286 
3 287 282 288 
3 289 282 290 
3 187 282 190 
3 283 282 188 
3 291 292 294 
3 295 292 296 
3 297 292 298 
3 299 292 300 
3 197 292 200 
3 293 292 198 
3 301 302 304 
3 305 302 306 
3 307 302 308 
3 309 302 310 
3 207 302 210 
3 303 302 208 
3 311 312 314 
3 315 312 316 
3 317 312 318 
3 319 312 320 
3 321 312 322 
3 313 312 237 
